# xmcd CD database file
#
# Track frame offsets:
#	150
#	33414
#	54423
#	77567
#	105508
#	130287
#	155716
#	179685
#	199316
#	233280
#	261241
#	281361
#	285835
#
# Disc length: 4097 seconds
#
# Revision: 0
# Processed by: cddbd v1.5.2PL0 Copyright (c) Steve Scherf et al.
# Submitted via: CDex 1.70beta2
#
DISCID=ac0fff0d
DTITLE=Janis Siegel - Nightsongs - A Late Night Interlude
DYEAR=2013
DGENRE=Jazz
TTITLE0=Love Saves ("Salvapantallas")
TTITLE1=Slow
TTITLE2=Love And Paris Rain
TTITLE3=If You Never Come To Me ("Inútil Paisagem")
TTITLE4=Marie
TTITLE5=You're Mine, You
TTITLE6=Sweet September Rain
TTITLE7=A Flower Is A Lovesome Thing
TTITLE8=Midnight Sun
TTITLE9=Lover
TTITLE10=Say You'll Go
TTITLE11=Claire de Lune
TTITLE12=As You Leave My Nest [Bonus Cut]
EXTD=YEAR: 2013
EXTT0=
EXTT1=
EXTT2=
EXTT3=
EXTT4=
EXTT5=
EXTT6=
EXTT7=
EXTT8=
EXTT9=
EXTT10=
EXTT11=
EXTT12=
PLAYORDER=
